<svg version="1.2" xmlns="http://www.w3.org/2000/svg" viewBox="0 0 650 650" width="650" height="650">
	<title>huawei-appgallery-seeklogo-ai</title>
	<defs>
		<linearGradient id="g1" x2="1" gradientUnits="userSpaceOnUse" gradientTransform="matrix(0,-616.133,616.176,0,16.956,633.066)">
			<stop offset=".438" stop-color="#ffffff"/>
			<stop offset=".44" stop-color="#ffffff"/>
			<stop offset=".57" stop-color="#ffffff"/>
		</linearGradient>
	</defs>
	<style>
		.s0 { fill: url(#g1) } 
		.s1 { fill: #000000 } 
	</style>
	<g id="Layer 1">
		<g id="&lt;Group&gt;">
			<path id="&lt;Compound Path&gt;" fill-rule="evenodd" class="s0" d="m633.1 471.6c0 14.9-1.3 29.8-3.5 44.5-2.3 14.7-5.9 28.9-11.6 42.5-11.5 27.2-30.6 46.8-57.6 58.6-14 6.1-28.7 9.8-43.8 12.3-17.3 2.9-34.7 3.6-52.2 3.6-46.4-0.2-92.9-0.1-139.4-0.1v-0.1c-53.5 0-107.1 0.2-160.6-0.1-10.3 0-20.5-1.6-30.7-3.2-10.7-1.8-21.3-4.2-31.7-7.6-32.6-10.8-56.5-31.3-70-63.3-5.7-13.6-9.1-27.7-11.5-42.2-2.9-17.6-3.6-35.3-3.6-53.1 0.1-94.6 0.1-189.3 0.1-284-0.1-19.4 1.8-38.6 5.9-57.6 3.5-16.7 9-32.5 18-47 12.5-20.2 30.3-34.1 52.1-43 17.1-6.9 34.9-10.4 53.1-12.6 20.5-2.3 40.9-2.3 61.4-2.3 88.8 0.1 177.6 0 266.4 0.2 13.1 0 26.2 1.4 39.2 3.3 15.8 2.3 31.1 6 45.8 12.2 24.3 10.3 42.9 27 55 50.6 5.2 10.1 9 20.7 11.7 31.7 5.3 21.8 7.5 43.9 7.5 66.3-0.1 96.8-0.1 193.6 0 290.4zm-449.5-167.7c0 15 4.6 25.7 13.4 34.7 7.2 7.5 15.3 13.8 23.8 19.7 18.5 13 38.2 24.1 58.1 34.8 6.5 3.5 13.1 6.8 19.7 10.2 1 0.4 2.2 1.5 3 0.7 1.2-1-0.3-2.2-0.7-3.2-1.2-3-2.7-5.9-4.1-8.8-13.5-27.9-28.9-54.8-45.8-80.8-12.1-18.4-24.7-36.4-38.3-53.8-2.3-2.9-2.5-2.9-5.1-0.3-4.6 4.6-8.7 9.8-12.2 15.3-6.6 10.3-11.9 21.1-11.8 31.5zm129.5 89.8c0.5 0.8 0.9 1.9 2 1.7 1.1-0.2 0.9-1.4 1.2-2.2 0.1-0.4 0.1-0.8 0.2-1.2 0.6-6.8 1.4-13.7 1.8-20.5 0.9-16.7 2-33.4 1.9-49.1 0.1-22.2-1.2-43.2-4.4-64.1-2.3-14.8-5.5-29.4-11.9-43.1-2-4.2-3.2-4.9-7.8-4.1q-5.7 1.1-11.3 2.4c-8.8 2-16.5 6.3-22.6 12.9-12.1 13.1-14.8 28.9-11.4 46 2.9 14.5 8.5 28.1 15 41.4 8.3 17.3 17.9 33.9 28 50.2 6.2 10.1 12.9 19.9 19.3 29.7zm19.1-29.3c0.5 9 1.4 18.1 2.1 27.1 0.1 1.3-0.2 3.4 1.2 3.8 1.6 0.4 2.2-1.7 3-2.9 7.6-10.9 14.8-22.2 21.7-33.6 11.7-19.3 23-38.9 31.5-60 5.1-12.6 9.5-25.3 9.2-40.4 1.1-12.7-4.4-24-14-33.6-9.5-9.5-21.9-12.3-34.7-13.9-2.5-0.3-3.7 1.2-4.6 3.1-5.4 10.9-8.6 22.5-10.9 34.3-4.4 22.3-5.7 45-6.2 67.7-0.3 16.1 0.8 32.3 1.7 48.4zm17.2 39.5c1 0.9 2.1-0.2 3-0.7q16.8-8.4 33.2-17.6c22.5-12.6 44.7-25.6 64.1-42.8 10.8-9.6 17.2-21.5 17.7-36.1 0.4-4.4-0.7-8.5-1.8-12.6-3.5-13.9-11.6-25.4-21-35.9-3.7-4.1-3.8-4-7.2 0.4-16.6 21.3-31.9 43.4-46.2 66.3-15.2 24.5-29.1 49.7-41.3 75.8-0.4 1-1.7 2.2-0.5 3.2zm-188.9-36.6c5.2 28.8 29.9 49.6 59.1 49.7 11.3 0.1 22.6 0.1 34 0.1q0 0 0-0.1h17.8c6.3 0 12.6 0.1 18.8 0 1.2 0 2.8 0.5 3.2-0.9 0.4-1.2-1.2-1.6-2.1-2.2-0.5-0.5-1.1-0.8-1.7-1.2-17-11.2-34.4-21.5-52-31.7-23.9-13.9-48.2-27.2-72.5-40.4-2.1-1.2-3-0.9-3.5 1.5-2 8.3-2.6 16.7-1.1 25.2zm31.8 192c-0.2-9-0.1-18-0.1-27 0-7.7 0.1-15.4 0-23-0.1-9.1 1.4-7.8-8.1-8-2.5 0-3.4 0.9-3.4 3.4 0.1 6.1 0 12.3 0.1 18.5 0 2.5-0.9 3.7-3.5 3.6q-11.4-0.1-22.7 0c-2.9 0.1-3.7-1.2-3.7-3.8 0.1-4.9 0.1-9.7 0-14.6 0-7.9 1.1-7-7.1-7-4.3-0.1-4.3 0-4.3 4.4 0 16.5-0.1 32.9 0 49.4 0.1 9.1-1.5 7.8 8.1 7.9 2.5 0.1 3.4-0.8 3.4-3.3-0.1-6.3 0-12.6-0.1-18.8 0-2.5 0.8-3.8 3.5-3.8q11.5 0 23 0c2.4 0 3.4 1.1 3.4 3.5-0.1 5-0.1 9.9 0 14.9 0 8.3-1.1 7.4 7.6 7.6 3 0 3.9-1.1 3.9-3.9zm13-111.4c12.3 10.8 26.6 15.2 43.4 6.3 14.5-7.8 28.1-16.8 41.6-26.1 0.6-0.5 1.6-0.9 1.3-1.8-0.3-1.1-1.5-0.7-2.3-0.7-11.8 0-23.4 0.6-35.1 1.1-18.6 0.8-37.2 1.2-55.7 1.8q0 0.1 0 0.1c-1.7 0-3.4 0-5.2 0.1-2.8 0-3 0.5-1.6 3 3.7 6.1 8.2 11.5 13.6 16.2zm59.3 56.1c0-1.8-0.5-2.6-2.3-2.6-2.1 0-4.1 0.1-6.1-0.1-2.3-0.1-2.9 0.8-2.9 3.1 0.2 10.5 0.2 21 0.1 31.5-0.1 6.4-1.2 12.7-8 15.7-10.5 4.5-21.9-1.4-21.7-13.6 0.1-9.5 0-19.1-0.1-28.7-0.1-9.1 1.6-7.8-8-8-2.5 0-3.4 0.9-3.4 3.4 0.1 12.2-0.1 24.4 0.1 36.6 0.1 5.8 2.3 11.1 6.4 15.3 8.2 8.6 18.8 7.9 28.9 5.8 10.5-2.2 16.6-11.3 16.8-22.1 0.1-5.8 0-11.7 0-17.5h0.1c0-6.3-0.1-12.5 0.1-18.8zm71.4 55.7c-7.7-17.4-15.6-34.6-22.8-52.2-2.2-5.1-4.9-6.8-10.1-6.2-2.5 0.2-3.8 0.9-4.8 3.2-4.8 11.2-9.7 22.4-14.7 33.5-3.3 7.5-6.6 15-9.9 22.5-0.3 0.7-1.3 2 0.1 2.1 3.3 0.3 6.7 0.2 10 0 1-0.1 1.3-1.5 1.7-2.4 1.1-2.6 2.3-5.1 3.3-7.8 0.9-2.3 2.5-3.2 4.9-3.1 5.9 0.1 11.8-0.1 17.6 0 9.4 0.1 7.7-1.4 11.5 7.7 2.8 6.7 2.3 5.5 8.2 5.6 1 0 2 0 3 0 2.5 0.2 3.1-0.5 2-2.9zm86.9-58.3c-2 0-4.1 0.1-6.1 0-2.1-0.1-3.1 0.8-3.7 2.7-3.9 12.1-7.8 24.2-11.7 36.3-0.3 1-0.4 2.2-1.6 2.3-1.4 0.1-1.4-1.3-1.7-2.2-3.7-11.1-7.3-22.2-11.1-33.3-2.2-6.3-2.3-6.2-9-5.9-1.9 0.1-2.8 0.9-3.4 2.7-4 12.3-8.1 24.6-12.1 36.9-0.3 0.8-0.5 1.8-1.7 1.8-1.1 0-1.4-1-1.6-1.9-3.8-11.9-7.6-23.8-11.3-35.8-0.8-2.5-2-4.1-4.9-3.6-0.8 0.1-1.6 0-2.4 0-1.2 0-2.5 0-3.7 0-1.8-0.1-2.8 0.3-1.8 2.4 0.3 0.5 0.4 1.2 0.6 1.7q9.1 25.9 18.1 51.7c1.9 5.4 1.9 5.3 7.7 5.5 3 0.1 4.4-1 5.4-3.9 3.7-11.4 7.7-22.6 11.6-33.8 0.3-1 0.4-2.2 1.7-2.2 1 0 1.4 0.9 1.6 1.7 3.2 10.8 7.2 21.4 10.9 32 2.4 7 0.9 5.9 8.6 6.1 2.5 0.1 3.8-1 4.6-3.3 1.7-5.4 3.6-10.7 5.5-16.1 4.5-13 8.9-25.9 13.5-38.9 0.8-2.2 0.2-3-2-2.9zm11.9-46.1c10.4-5.1 17.7-13.5 23.8-23 2.1-3.2 1.8-3.6-2-3.7-10.6 0-21.2-0.7-31.8-1.1-19.4-0.7-38.9-1.2-58.4-1.8q0 0 0-0.1c-1.8 0-3.6 0-5.4 0-0.7 0-1.6-0.2-1.9 0.6-0.4 1 0.5 1.4 1.2 1.8 14.6 9.8 28.9 20 44.8 27.7 10 4.8 19.8 4.5 29.7-0.4zm49.7 103.5c-0.1-0.5 0-1.1 0-1.6 0-4.3-0.1-4.3-4.4-4.3-8.6 0-17.2 0-25.8 0-3.8-0.1-4.4-0.6-4.4-4.5 0-2.9 0.1-5.9 0-8.8-0.1-2.7 0.9-3.8 3.7-3.8 5.2 0.2 10.5 0.1 15.8 0.1 3.7 0 3.7-0.1 3.6-3.9 0-1-0.2-2.1 0-3.1 0.6-2.7-0.6-3.3-3.1-3.3-5.2 0.1-10.5 0.1-15.7 0-4 0-4.3-0.3-4.3-4.3 0-2 0.1-3.9 0-5.8-0.2-2.9 0.9-4 3.9-3.9 7.5 0.1 15.1 0.1 22.7 0 7.4 0 6.7 1 6.8-6.8 0.1-2.7-1-3.5-3.6-3.5-12.5 0.1-25 0.1-37.6 0-3 0-3.7 1.1-3.7 3.9 0.1 8.9 0.1 17.8 0.1 26.7 0 9.1 0 18.2-0.1 27.3 0 2.6 1 3.5 3.6 3.5q19.4-0.2 38.8 0c2.9 0 4-1.1 3.7-3.9zm4.8-217c-0.6-2.2-1.4-2.8-3.6-1.5-2.9 1.8-6 3.3-9 5-22.5 12.3-45 24.9-67.3 37.8-16.9 9.9-33.6 20-50 30.8-0.9 0.5-2.4 1-2.1 2.3 0.4 1.3 1.9 0.8 2.9 0.8q16.9 0 33.7 0c10.6 0 21.2 0.2 31.8-0.1 8.3-0.1 16.8-0.2 24.8-3.2 21.9-7.9 35.3-23.4 39.7-46.3 1.7-8.5 1.3-17.1-0.9-25.6zm13.7 159.6q-0.3 0-0.6 0c-1.4 0-1.8 0.7-1.8 2.1 0 9.5 0 19 0 28.5h0.2v23.6c0 7.1 0 7.1 7 7 3.8 0 3.9-0.1 3.9-4 0-16.3 0.1-32.7 0-49-0.1-9.5 1.8-8.1-8.7-8.2zm-188.9 34.7c1 2.1 0.4 3.4-2.1 3.4-2.4 0.1-4.8 0-7.2 0q-3.5 0-7 0c-2.2 0-3-1-2.1-3.1q3.7-8.8 7.5-17.5c0.4-0.7 0.7-1.6 1.7-1.5 0.9 0 1.4 0.8 1.7 1.5q3.8 8.6 7.5 17.2z"/>
			<path id="&lt;Path&gt;" class="s1" d="m293.4 416.1c-0.4 1.4-2 0.9-3.2 0.9-6.2 0.1-12.5 0-18.8 0h-17.8q0 0.1 0 0.1c-11.4 0-22.7 0-34-0.1-29.2-0.1-53.9-20.9-59.1-49.7-1.5-8.5-0.9-16.9 1.1-25.2 0.5-2.4 1.4-2.7 3.5-1.5 24.3 13.2 48.6 26.5 72.5 40.4 17.6 10.2 35 20.5 52 31.7 0.6 0.4 1.2 0.7 1.7 1.2 0.9 0.6 2.5 1 2.1 2.2z"/>
			<path id="&lt;Path&gt;" class="s1" d="m192.3 559.3c0 2.8-0.9 3.9-3.9 3.9-8.7-0.2-7.6 0.7-7.6-7.6-0.1-5-0.1-9.9 0-14.9 0-2.4-1-3.5-3.4-3.5q-11.5 0-23 0c-2.7 0-3.5 1.3-3.5 3.8 0.1 6.2 0 12.5 0.1 18.8 0 2.5-0.9 3.4-3.4 3.3-9.6-0.1-8 1.2-8.1-7.9-0.1-16.5 0-32.9 0-49.4 0-4.4 0-4.5 4.3-4.4 8.2 0 7.1-0.9 7.1 7 0.1 4.9 0.1 9.7 0 14.6 0 2.6 0.8 3.9 3.7 3.8q11.3-0.1 22.7 0c2.6 0.1 3.5-1.1 3.5-3.6-0.1-6.2 0-12.4-0.1-18.5 0-2.5 0.9-3.4 3.4-3.4 9.5 0.2 8-1.1 8.1 8 0.1 7.6 0 15.3 0 23 0 9-0.1 18 0.1 27z"/>
			<path id="&lt;Path&gt;" class="s1" d="m301.6 404c-0.8 0.8-2-0.3-3-0.7-6.6-3.4-13.2-6.7-19.7-10.2-19.9-10.7-39.6-21.8-58.1-34.8-8.5-5.9-16.6-12.2-23.8-19.7-8.8-9-13.4-19.7-13.4-34.7-0.1-10.4 5.2-21.2 11.8-31.5 3.5-5.5 7.6-10.7 12.2-15.3 2.6-2.6 2.8-2.6 5.1 0.3 13.6 17.4 26.2 35.4 38.3 53.8 16.9 26 32.3 52.9 45.8 80.8 1.4 2.9 2.9 5.8 4.1 8.8 0.4 1 1.9 2.2 0.7 3.2z"/>
			<path id="&lt;Path&gt;" class="s1" d="m264.5 522.8h-0.1c0 5.8 0.1 11.7 0 17.5-0.2 10.8-6.3 19.9-16.8 22.1-10.1 2.1-20.7 2.8-28.9-5.8-4.1-4.2-6.3-9.5-6.4-15.3-0.2-12.2 0-24.4-0.1-36.6 0-2.5 0.9-3.4 3.4-3.4 9.6 0.2 7.9-1.1 8 8 0.1 9.6 0.2 19.2 0.1 28.7-0.2 12.2 11.2 18.1 21.7 13.6 6.8-3 7.9-9.3 8-15.7 0.1-10.5 0.1-21-0.1-31.5 0-2.3 0.6-3.2 2.9-3.1 2 0.2 4 0.1 6.1 0.1 1.8 0 2.3 0.8 2.3 2.6-0.2 6.3-0.1 12.5-0.1 18.8z"/>
			<path id="&lt;Path&gt;" class="s1" d="m400.9 258.4c0.3 15.1-4.1 27.8-9.2 40.4-8.5 21.1-19.8 40.7-31.5 60-6.9 11.4-14.1 22.7-21.7 33.6-0.8 1.2-1.4 3.3-3 2.9-1.4-0.4-1.1-2.5-1.2-3.8-0.7-9-1.6-18.1-2.1-27.1-0.9-16.1-2-32.3-1.7-48.4 0.5-22.7 1.8-45.4 6.2-67.7 2.3-11.8 5.5-23.4 10.9-34.3 0.9-1.9 2.1-3.4 4.6-3.1 12.8 1.6 25.2 4.4 34.7 13.9 9.6 9.6 15.1 20.9 14 33.6z"/>
			<path id="&lt;Path&gt;" class="s1" d="m467.4 306.7c-0.5 14.6-6.9 26.5-17.7 36.1-19.4 17.2-41.6 30.2-64.1 42.8q-16.4 9.2-33.2 17.6c-0.9 0.5-2 1.6-3 0.7-1.2-1 0.1-2.2 0.5-3.2 12.2-26.1 26.1-51.3 41.3-75.8 14.3-22.9 29.6-45 46.2-66.3 3.4-4.4 3.5-4.5 7.2-0.4 9.4 10.5 17.5 22 21 35.9 1.1 4.1 2.2 8.2 1.8 12.6z"/>
			<path id="&lt;Path&gt;" class="s1" d="m318.3 371.5c-0.4 6.8-1.2 13.7-1.8 20.5-0.1 0.4-0.1 0.8-0.2 1.2-0.3 0.8-0.1 2-1.2 2.2-1.1 0.2-1.5-0.9-2-1.7-6.4-9.8-13.1-19.6-19.3-29.7-10.1-16.3-19.7-32.9-28-50.2-6.5-13.3-12.1-26.9-15-41.4-3.4-17.1-0.7-32.9 11.4-46 6.1-6.6 13.8-10.9 22.6-12.9q5.6-1.3 11.3-2.4c4.6-0.8 5.8-0.1 7.8 4.1 6.4 13.7 9.6 28.3 11.9 43.1 3.2 20.9 4.5 41.9 4.4 64.1 0.1 15.7-1 32.4-1.9 49.1z"/>
			<path id="&lt;Path&gt;" class="s1" d="m291.3 428.1c-13.5 9.3-27.1 18.3-41.6 26.1-16.8 8.9-31.1 4.5-43.4-6.3-5.4-4.7-9.9-10.1-13.6-16.2-1.4-2.5-1.2-3 1.6-3 1.8-0.1 3.5-0.1 5.2-0.1q0 0 0-0.1c18.5-0.6 37.1-1 55.7-1.8 11.7-0.5 23.3-1.1 35.1-1.1 0.8 0 2-0.4 2.3 0.7 0.3 0.9-0.7 1.3-1.3 1.8z"/>
			<path id="&lt;Path&gt;" class="s1" d="m490.2 367.4c-4.4 22.9-17.8 38.4-39.7 46.3-8 3-16.5 3.1-24.8 3.2-10.6 0.3-21.2 0.1-31.8 0.1q-16.8 0-33.7 0c-1 0-2.5 0.5-2.9-0.8-0.3-1.3 1.2-1.8 2.1-2.3 16.4-10.8 33.1-20.9 50-30.8 22.3-12.9 44.8-25.5 67.3-37.8 3-1.7 6.1-3.2 9-5 2.2-1.3 3-0.7 3.6 1.5 2.2 8.5 2.6 17.1 0.9 25.6z"/>
			<path id="&lt;Path&gt;" class="s1" d="m480.8 562.7q-19.4-0.2-38.8 0c-2.6 0-3.6-0.9-3.6-3.5 0.1-9.1 0.1-18.2 0.1-27.3 0-8.9 0-17.8-0.1-26.7 0-2.8 0.7-3.9 3.7-3.9 12.6 0.1 25.1 0.1 37.6 0 2.6 0 3.7 0.8 3.6 3.5-0.1 7.8 0.6 6.8-6.8 6.8-7.6 0.1-15.2 0.1-22.7 0-3-0.1-4.1 1-3.9 3.9 0.1 1.9 0 3.8 0 5.8 0 4 0.3 4.3 4.3 4.3 5.2 0.1 10.5 0.1 15.7 0 2.5 0 3.7 0.6 3.1 3.3-0.2 1 0 2.1 0 3.1 0.1 3.8 0.1 3.9-3.6 3.9-5.3 0-10.6 0.1-15.8-0.1-2.8 0-3.8 1.1-3.7 3.8 0.1 2.9 0 5.9 0 8.8 0 3.9 0.6 4.4 4.4 4.5 8.6 0 17.2 0 25.8 0 4.3 0 4.4 0 4.4 4.3 0 0.5-0.1 1.1 0 1.6 0.3 2.8-0.8 3.9-3.7 3.9z"/>
			<path id="&lt;Path&gt;" class="s1" d="m511.7 509.6c0.1 16.3 0 32.7 0 49 0 3.9-0.1 4-3.9 4-7 0.1-7 0.1-7-7v-23.6h-0.2c0-9.5 0-19 0-28.5 0-1.4 0.4-2.1 1.8-2.1q0.3 0 0.6 0c10.5 0.1 8.6-1.3 8.7 8.2z"/>
			<path id="&lt;Path&gt;" class="s1" d="m458.6 432.3c-6.1 9.5-13.4 17.9-23.8 23-9.9 4.9-19.7 5.2-29.7 0.4-15.9-7.7-30.2-17.9-44.8-27.7-0.7-0.4-1.6-0.8-1.2-1.8 0.3-0.8 1.2-0.6 1.9-0.6 1.8 0 3.6 0 5.4 0q0 0.1 0 0.1c19.5 0.6 39 1.1 58.4 1.8 10.6 0.4 21.2 1.1 31.8 1.1 3.8 0.1 4.1 0.5 2 3.7z"/>
			<path id="&lt;Compound Path&gt;" fill-rule="evenodd" class="s1" d="m334 562.6c-1 0-2 0-3 0-5.9-0.1-5.4 1.1-8.2-5.6-3.8-9.1-2.1-7.6-11.5-7.7-5.8-0.1-11.7 0.1-17.6 0-2.4-0.1-4 0.8-4.9 3.1-1 2.7-2.2 5.2-3.3 7.8-0.4 0.9-0.7 2.3-1.7 2.4-3.3 0.2-6.7 0.3-10 0-1.4-0.1-0.4-1.4-0.1-2.1 3.3-7.5 6.6-15 9.9-22.5 5-11.1 9.9-22.3 14.7-33.5 1-2.3 2.3-3 4.8-3.2 5.2-0.6 7.9 1.1 10.1 6.2 7.2 17.6 15.1 34.8 22.8 52.2 1.1 2.4 0.5 3.1-2 2.9zm-19.9-26.5q-3.7-8.6-7.5-17.2c-0.3-0.7-0.8-1.5-1.7-1.5-1-0.1-1.3 0.8-1.7 1.5q-3.8 8.7-7.5 17.5c-0.9 2.1-0.1 3.1 2.1 3.1q3.5 0 7 0c2.4 0 4.8 0.1 7.2 0 2.5 0 3.1-1.3 2.1-3.4z"/>
			<path id="&lt;Path&gt;" class="s1" d="m424.9 504.3c-4.6 13-9 25.9-13.5 38.9-1.9 5.4-3.8 10.7-5.5 16.1-0.8 2.3-2.1 3.4-4.6 3.3-7.7-0.2-6.2 0.9-8.6-6.1-3.7-10.6-7.7-21.2-10.9-32-0.2-0.8-0.6-1.7-1.6-1.7-1.3 0-1.4 1.2-1.7 2.2-3.9 11.2-7.9 22.4-11.6 33.8-1 2.9-2.4 4-5.4 3.9-5.8-0.2-5.8-0.1-7.7-5.5q-9-25.8-18.1-51.7c-0.2-0.5-0.3-1.2-0.6-1.7-1-2.1 0-2.5 1.8-2.4 1.2 0 2.5 0 3.7 0 0.8 0 1.6 0.1 2.4 0 2.9-0.5 4.1 1.1 4.9 3.6 3.7 12 7.5 23.9 11.3 35.8 0.2 0.9 0.5 1.9 1.6 1.9 1.2 0 1.4-1 1.7-1.8 4-12.3 8.1-24.6 12.1-36.9 0.6-1.8 1.5-2.6 3.4-2.7 6.7-0.3 6.8-0.4 9 5.9 3.8 11.1 7.4 22.2 11.1 33.3 0.3 0.9 0.3 2.3 1.7 2.2 1.2-0.1 1.3-1.3 1.6-2.3 3.9-12.1 7.8-24.2 11.7-36.3 0.6-1.9 1.6-2.8 3.7-2.7 2 0.1 4.1 0 6.1 0 2.2-0.1 2.8 0.7 2 2.9z"/>
			<path id="&lt;Path&gt;" class="s1" d="m477.5 92.1c-3.1 4-6.1 8-9.2 11.9-23.5 29.3-53.3 49.4-89 60.7-26.1 8.3-52.9 10.4-80.2 6.8-28.7-3.8-55-14.1-79-30.2-11.7-7.8-22.4-16.8-31.8-27.4-5.5-6.2-11.1-12.4-15.7-19.3-0.6-0.9-1-2.1-2.2-2.5-2.3-3.8-4.6-7.7-6.8-11.6-2.4-4.2-1.4-8.2 2.4-10.4 3.4-2 7.3-0.7 9.7 3.1 2.3 3.6 4.2 7.3 6.9 10.6 4.4 7.4 10 13.9 15.8 20.2 22.7 24.4 50.2 41.1 82.5 49.5 20.6 5.4 41.5 6.8 62.7 4.3 41.9-4.9 77-23.3 105.9-53.8 5.4-5.7 10.2-11.8 14.7-18.2 0.4-0.6 1.1-1.1 1-2 2.7-3.2 4.8-6.7 6.9-10.3 1.2-2.1 2.9-3.8 5.5-4.2 2.9-0.4 5.2 0.7 6.9 3 1.6 2.4 1.8 4.9 0.3 7.4-2.3 4.2-4.8 8.3-7.3 12.4z"/>
			<path id="&lt;Path&gt;" class="s1" d="m477.5 92.1c2.5-4.1 5-8.2 7.3-12.4 1.5-2.5 1.3-5-0.3-7.4-1.7-2.3-4-3.4-6.9-3-2.6 0.4-4.3 2.1-5.5 4.2-2.1 3.6-4.2 7.1-6.9 10.3-1.8-1-2.4-2.9-2.8-4.6-2.1-10.9 3.8-20.2 14.3-22.2 11.2-2.1 21.1 6.7 21.1 17.5 0 9.9-7.2 16.8-16.5 18.3-1.3 0.2-2.5-0.5-3.8-0.7z"/>
			<path id="&lt;Path&gt;" class="s1" d="m182.6 83.8c-2.7-3.3-4.6-7-6.9-10.6-2.4-3.8-6.3-5.1-9.7-3.1-3.8 2.2-4.8 6.2-2.4 10.4 2.2 3.9 4.5 7.8 6.8 11.6-10.5 1.4-18.5-5.7-20.3-15.4-1.4-8 6.2-18.6 14.3-19.6 10.2-1.2 17.1 2.8 20.8 12.2 1.7 4.4 0.3 12.1-2.6 14.5z"/>
		</g>
	</g>
</svg>